<?xml version="1.0"?>
<svg width="93" height="78" xmlns="http://www.w3.org/2000/svg" xmlns:svg="http://www.w3.org/2000/svg">
 <defs>
  <clipPath id="clip0_1_631">
   <path d="m0,27c0,-2.21 1.79,-4 4,-4l47,0c2.21,0 4,1.79 4,4l0,47c0,2.21 -1.79,4 -4,4l-47,0c-2.21,0 -4,-1.79 -4,-4l0,-47z" fill="white" id="svg_1"/>
  </clipPath>
  <clipPath id="clip1_1_631">
   <rect fill="white" height="17" id="svg_2" transform="translate(13 42)" width="25"/>
  </clipPath>
 </defs>
 <g class="layer">
  <title>Layer 1</title>
  <g clip-path="url(#clip0_1_631)" id="svg_3">
   <path d="m0,27c0,-2.21 1.79,-4 4,-4l47,0c2.21,0 4,1.79 4,4l0,47c0,2.21 -1.79,4 -4,4l-47,0c-2.21,0 -4,-1.79 -4,-4l0,-47z" fill="#35B8BE" id="svg_4"/>
   <g id="svg_5" opacity="0.2">
    <path clip-rule="evenodd" d="m-0.72,-29.29c1.64,3.43 1.93,10.61 2.62,16.58c0.63,5.55 1.28,10.96 1.23,16.88c-0.07,6.97 0.14,15.57 -1.56,19.75c-1.71,4.2 -4.13,-0.8 -6.28,-0.52c-1.93,0.25 -4.03,5.65 -5.64,2.08c-1.62,-3.62 -0.85,-12.12 -1.56,-18.12c-0.65,-5.53 -2.59,-9.55 -2.42,-15.45c0.17,-5.99 1.88,-10.01 3.27,-13.92c1.36,-3.81 2.85,-6.95 4.6,-8.18c1.92,-1.35 4.09,-2.57 5.74,0.9z" fill-rule="evenodd" id="svg_6" opacity="0.2" stroke="white"/>
    <path clip-rule="evenodd" d="m0.3,-36.23c2.04,4.27 2.39,13.2 3.25,20.61c0.79,6.91 1.59,13.62 1.53,20.98c-0.08,8.67 0.18,19.35 -1.94,24.54c-2.13,5.22 -5.13,-1 -7.8,-0.66c-2.41,0.31 -5.01,7.03 -7.01,2.58c-2.02,-4.5 -1.06,-15.06 -1.94,-22.52c-0.82,-6.87 -3.23,-11.87 -3.02,-19.2c0.22,-7.43 2.34,-12.43 4.07,-17.29c1.69,-4.73 3.54,-8.63 5.72,-10.16c2.38,-1.68 5.07,-3.19 7.14,1.12z" fill-rule="evenodd" id="svg_7" opacity="0.2" stroke="white"/>
    <path clip-rule="evenodd" d="m1.24,-42.66c2.41,5.04 2.83,15.59 3.84,24.35c0.94,8.15 1.89,16.09 1.81,24.78c-0.09,10.24 0.22,22.86 -2.28,28.99c-2.52,6.16 -6.07,-1.19 -9.22,-0.79c-2.85,0.37 -5.92,8.3 -8.29,3.04c-2.38,-5.32 -1.25,-17.79 -2.29,-26.6c-0.97,-8.12 -3.82,-14.03 -3.57,-22.68c0.26,-8.79 2.77,-14.7 4.81,-20.43c1.99,-5.59 4.19,-10.19 6.76,-12c2.81,-1.97 5.99,-3.76 8.43,1.34z" fill-rule="evenodd" id="svg_8" opacity="0.2" stroke="white"/>
    <path clip-rule="evenodd" d="m2.21,-49.35c2.8,5.85 3.29,18.08 4.46,28.23c1.09,9.46 2.19,18.66 2.1,28.74c-0.1,11.87 0.25,26.51 -2.64,33.6c-2.92,7.15 -7.04,-1.38 -10.69,-0.91c-3.31,0.42 -6.87,9.61 -9.61,3.51c-2.77,-6.17 -1.45,-20.63 -2.67,-30.84c-1.12,-9.42 -4.42,-16.27 -4.13,-26.31c0.29,-10.18 3.2,-17.03 5.57,-23.67c2.31,-6.48 4.86,-11.82 7.84,-13.91c3.26,-2.28 6.95,-4.35 9.77,1.56z" fill-rule="evenodd" id="svg_9" opacity="0.2" stroke="white"/>
    <path clip-rule="evenodd" d="m3.4,-57.52c3.27,6.84 3.85,21.12 5.22,32.98c1.27,11.05 2.56,21.8 2.45,33.57c-0.12,13.86 0.3,30.96 -3.09,39.25c-3.4,8.35 -8.22,-1.62 -12.49,-1.07c-3.85,0.49 -8.02,11.22 -11.22,4.09c-3.24,-7.2 -1.7,-24.1 -3.12,-36.02c-1.31,-11 -5.17,-19.01 -4.83,-30.73c0.34,-11.9 3.74,-19.89 6.51,-27.65c2.7,-7.56 5.67,-13.79 9.15,-16.24c3.82,-2.67 8.13,-5.08 11.42,1.82z" fill-rule="evenodd" id="svg_10" opacity="0.2" stroke="white"/>
    <path clip-rule="evenodd" d="m4.71,-66.43c3.78,7.9 4.45,24.43 6.03,38.16c1.47,12.78 2.96,25.22 2.84,38.84c-0.14,16.03 0.34,35.82 -3.57,45.4c-3.94,9.66 -9.52,-1.87 -14.45,-1.24c-4.47,0.56 -9.29,12.98 -12.99,4.73c-3.75,-8.33 -1.97,-27.88 -3.61,-41.68c-1.51,-12.72 -5.98,-21.99 -5.59,-35.55c0.4,-13.77 4.33,-23.01 7.53,-31.98c3.13,-8.76 6.56,-15.97 10.59,-18.79c4.42,-3.09 9.4,-5.88 13.22,2.11z" fill-rule="evenodd" id="svg_11" opacity="0.2" stroke="white"/>
    <path clip-rule="evenodd" d="m5.97,-75.1c4.28,8.95 5.04,27.66 6.83,43.2c1.67,14.46 3.36,28.54 3.22,43.96c-0.15,18.15 0.39,40.54 -4.04,51.4c-4.46,10.92 -10.77,-2.13 -16.36,-1.43c-5.05,0.65 -10.51,14.7 -14.7,5.36c-4.24,-9.43 -2.23,-31.56 -4.09,-47.18c-1.71,-14.4 -6.77,-24.89 -6.33,-40.24c0.45,-15.58 4.9,-26.04 8.52,-36.2c3.54,-9.91 7.43,-18.06 11.99,-21.26c5,-3.5 10.64,-6.66 14.96,2.39z" fill-rule="evenodd" id="svg_12" opacity="0.2" stroke="white"/>
    <path clip-rule="evenodd" d="m7.13,-83.03c4.74,9.91 5.57,30.61 7.56,47.81c1.84,16 3.71,31.58 3.56,48.64c-0.17,20.08 0.43,44.86 -4.47,56.87c-4.94,12.09 -11.92,-2.36 -18.1,-1.57c-5.59,0.7 -11.63,16.25 -16.27,5.92c-4.7,-10.44 -2.47,-34.93 -4.53,-52.21c-1.9,-15.94 -7.49,-27.54 -7,-44.53c0.49,-17.24 5.42,-28.82 9.43,-40.05c3.91,-10.97 8.21,-19.99 13.26,-23.52c5.53,-3.87 11.78,-7.36 16.56,2.64z" fill-rule="evenodd" id="svg_13" opacity="0.2" stroke="white"/>
    <path clip-rule="evenodd" d="m8.36,-91.45c5.22,10.93 6.14,33.74 8.33,52.7c2.04,17.64 4.1,34.82 3.94,53.63c-0.19,22.13 0.47,49.45 -4.94,62.68c-5.44,13.33 -13.14,-2.6 -19.95,-1.74c-6.17,0.78 -12.82,17.91 -17.94,6.52c-5.17,-11.51 -2.72,-38.5 -4.99,-57.54c-2.09,-17.57 -8.26,-30.37 -7.72,-49.09c0.54,-19.01 5.97,-31.76 10.39,-44.15c4.32,-12.09 9.06,-22.03 14.63,-25.92c6.09,-4.27 12.98,-8.12 18.25,2.91z" fill-rule="evenodd" id="svg_14" opacity="0.2" stroke="white"/>
    <path clip-rule="evenodd" d="m9.7,-100.61c5.75,12.04 6.76,37.15 9.17,58.03c2.24,19.42 4.51,38.33 4.33,59.03c-0.2,24.38 0.53,54.45 -5.42,69.02c-6,14.67 -14.47,-2.87 -21.98,-1.92c-6.78,0.85 -14.11,19.72 -19.75,7.18c-5.69,-12.67 -2.99,-42.38 -5.49,-63.36c-2.3,-19.34 -9.09,-33.44 -8.5,-54.05c0.6,-20.92 6.57,-34.97 11.44,-48.6c4.75,-13.31 9.97,-24.26 16.1,-28.54c6.71,-4.7 14.29,-8.94 20.1,3.21z" fill-rule="evenodd" id="svg_15" opacity="0.2" stroke="white"/>
   </g>
  </g>
  <path d="m49,34.13c-0.7,0 -1.29,-0.19 -1.78,-0.57c-0.49,-0.38 -0.86,-0.93 -1.12,-1.66c-0.26,-0.72 -0.39,-1.6 -0.39,-2.63c0,-1.02 0.13,-1.89 0.39,-2.61c0.26,-0.73 0.64,-1.29 1.13,-1.67c0.49,-0.38 1.08,-0.57 1.77,-0.57c0.69,0 1.28,0.19 1.77,0.57c0.49,0.38 0.87,0.94 1.12,1.67c0.27,0.72 0.4,1.59 0.4,2.61c0,1.03 -0.13,1.91 -0.39,2.63c-0.26,0.73 -0.63,1.28 -1.12,1.66c-0.49,0.38 -1.08,0.57 -1.78,0.57zm0,-1.02c0.69,0 1.22,-0.33 1.61,-0.99c0.38,-0.67 0.57,-1.62 0.57,-2.85c0,-0.82 -0.09,-1.51 -0.26,-2.09c-0.18,-0.57 -0.43,-1.01 -0.75,-1.31c-0.33,-0.31 -0.71,-0.46 -1.17,-0.46c-0.68,0 -1.22,0.34 -1.6,1.01c-0.39,0.68 -0.58,1.62 -0.58,2.85c0,0.82 0.09,1.52 0.26,2.09c0.17,0.57 0.42,1.01 0.74,1.31c0.33,0.29 0.72,0.44 1.18,0.44z" fill="#35B8BE" id="svg_18"/>
  <g clip-path="url(#clip1_1_631)" id="svg_19">
   <path d="m16.83,44l-3.83,0l0,-2l6.46,0l0.66,4l16.41,0l0,5.94l-17.99,2.43l-1.71,-10.37zm18.96,15c-1.21,0 -2.2,-0.67 -2.2,-1.5c0,-0.83 0.99,-1.5 2.2,-1.5c1.22,0 2.21,0.67 2.21,1.5c0,0.83 -0.99,1.5 -2.21,1.5zm-14.7,0c-1.22,0 -2.21,-0.67 -2.21,-1.5c0,-0.83 0.99,-1.5 2.21,-1.5c1.22,0 2.2,0.67 2.2,1.5c0,0.83 -0.98,1.5 -2.2,1.5z" fill="white" id="svg_20"/>
  </g>
 </g>
</svg>